<svg width="269" height="61" viewBox="0 0 269 61" fill="none" xmlns="http://www.w3.org/2000/svg">
<path d="M93.7123 24.5932C90.0361 24.5932 88.2181 27.4807 87.3892 29.3522C86.9214 30.3949 86.7877 31.2104 86.4134 31.2104C85.8786 31.2104 86.2663 30.5019 85.8252 28.9111C85.2503 26.8257 83.5259 24.5932 79.8497 24.5932C75.9863 24.5932 74.342 27.855 73.5533 29.6463C73.0186 30.8762 73.0186 31.2104 72.6042 31.2104C72.0026 31.2104 72.4972 30.2345 72.7646 29.0982C73.2993 26.8524 72.8849 25.1279 72.8849 25.1279H66.7891V48.121H75.1441V36.6779C75.1441 34.4187 76.0932 31.558 77.7108 31.558C79.5823 31.558 79.9566 32.9883 79.9566 35.6486V48.121H88.3384V36.6646C88.3384 34.6593 89.1538 31.5446 90.9184 31.5446C92.8167 31.5446 93.1509 33.5632 93.1509 35.6352V48.1076H101.386V34.5791C101.386 28.5769 99.2734 24.5798 93.7257 24.5798L93.7123 24.5932Z" fill="#6F7881"/>
<path d="M235.44 24.5932C231.764 24.5932 229.946 27.4807 229.117 29.3522C228.649 30.3949 228.516 31.2104 228.141 31.2104C227.607 31.2104 227.967 30.3014 227.553 28.9111C226.938 26.839 225.414 24.5932 221.578 24.5932C217.741 24.5932 216.07 27.855 215.281 29.6463C214.746 30.8762 214.746 31.2104 214.332 31.2104C213.731 31.2104 214.225 30.2345 214.492 29.0982C215.027 26.8524 214.613 25.1279 214.613 25.1279H208.49V48.121H216.845V36.6779C216.845 34.4187 217.794 31.558 219.412 31.558C221.283 31.558 221.658 32.9883 221.658 35.6486V48.121H230.04V36.6646C230.04 34.6593 230.855 31.5446 232.62 31.5446C234.518 31.5446 234.852 33.5632 234.852 35.6352V48.1076H243.087V34.5791C243.087 28.5769 240.975 24.5798 235.427 24.5798L235.44 24.5932Z" fill="#6F7881"/>
<path d="M115.636 24.5932C109.232 24.5932 104.647 26.946 104.647 26.946V33.8573C104.647 33.8573 109.714 30.943 113.831 30.943C117.12 30.943 117.521 32.7076 117.36 34.1781C117.36 34.1781 116.411 33.9241 113.524 33.9241C106.719 33.9241 103.284 37.0121 103.284 41.9717C103.284 46.6772 107.147 48.6423 110.395 48.6423C115.141 48.6423 117.227 45.4474 117.868 43.9368C118.309 42.8807 118.39 42.1856 118.791 42.1856C119.245 42.1856 119.098 42.6936 119.071 43.7363C119.031 45.5677 119.125 46.9446 119.406 48.121H125.702V36.7982C125.702 29.7265 123.202 24.5798 115.622 24.5798L115.636 24.5932ZM113.604 42.747C111.612 43.2015 110.569 42.5866 110.569 41.2632C110.569 39.4451 112.441 38.7232 115.114 38.7232C116.291 38.7232 117.4 38.8302 117.4 38.8302C117.4 39.6055 115.716 42.2524 113.59 42.747H113.604Z" fill="#6F7881"/>
<path d="M147.813 18.1498H139.458V48.121H147.813V18.1498Z" fill="#6F7881"/>
<path d="M157.01 36.6245C157.01 34.5524 158.935 32.6809 162.464 32.6809C166.314 32.6809 169.402 34.5257 170.097 34.9534V26.9593C170.097 26.9593 167.651 24.6066 161.649 24.6066C155.326 24.6066 150.045 28.3095 150.045 36.2769C150.045 44.2442 154.831 48.6691 161.622 48.6691C166.929 48.6691 170.097 45.7548 170.097 45.7548V38.1618C169.095 38.7232 166.301 40.6616 162.491 40.6616C158.454 40.6616 156.997 38.8034 156.997 36.6512L157.01 36.6245Z" fill="#6F7881"/>
<path d="M186.995 24.5931C182.155 24.5931 180.324 29.1784 179.95 29.9671C179.575 30.7558 179.402 31.2237 179.094 31.2103C178.573 31.1969 178.934 30.2344 179.134 29.6195C179.522 28.4431 180.351 25.3685 180.351 21.5853C180.351 19.0186 180.003 18.1631 180.003 18.1631H172.798V48.1209H181.153V36.6778C181.153 34.8197 181.901 31.5579 184 31.5579C185.738 31.5579 186.286 32.8546 186.286 35.448V48.1209H194.641V35.9426C194.641 30.0339 193.665 24.5798 187.008 24.5798L186.995 24.5931Z" fill="#6F7881"/>
<path d="M197.355 25.1547V48.121H205.71V25.1547C205.71 25.1547 204.306 25.9701 201.539 25.9701C198.772 25.9701 197.355 25.1547 197.355 25.1547Z" fill="#6F7881"/>
<path d="M201.499 24.5932C204.319 24.5932 206.606 23.0969 206.606 21.2512C206.606 19.4055 204.319 17.9092 201.499 17.9092C198.679 17.9092 196.393 19.4055 196.393 21.2512C196.393 23.0969 198.679 24.5932 201.499 24.5932Z" fill="#6F7881"/>
<path d="M128.416 25.1547V48.121H136.771V25.1547C136.771 25.1547 135.367 25.9701 132.6 25.9701C129.833 25.9701 128.416 25.1547 128.416 25.1547Z" fill="#6F7881"/>
<path d="M132.56 24.5932C135.38 24.5932 137.666 23.0969 137.666 21.2512C137.666 19.4055 135.38 17.9092 132.56 17.9092C129.739 17.9092 127.453 19.4055 127.453 21.2512C127.453 23.0969 129.739 24.5932 132.56 24.5932Z" fill="#6F7881"/>
<path d="M259.69 24.5931C255.399 24.5931 253.434 27.8148 252.578 29.6463C252.017 30.8628 252.043 31.2103 251.629 31.2103C251.027 31.2103 251.522 30.2345 251.789 29.0982C252.324 26.8523 251.91 25.1279 251.91 25.1279H245.787V54.4841H254.142V45.1799C255.131 46.851 256.963 48.6423 259.783 48.6423C265.826 48.6423 268.86 43.5357 268.86 36.6244C268.86 28.8041 265.224 24.5931 259.677 24.5931H259.69ZM257.404 43.1881C255.492 43.1881 254.075 40.7551 254.075 37.373C254.075 33.9909 255.519 31.5579 257.337 31.5579C259.663 31.5579 260.652 33.6834 260.652 37.373C260.652 41.0626 259.743 43.1881 257.404 43.1881Z" fill="#6F7881"/>
<path d="M96.7333 13.2838C96.7333 16.2381 99.0994 18.4037 102.107 18.4037C105.115 18.4037 107.481 16.2515 107.481 13.2838V6.4928H104.567V12.9362C104.567 14.527 103.498 15.5964 102.094 15.5964C100.69 15.5964 99.6208 14.527 99.6208 12.9362V6.4928H96.7065V13.2838H96.7333Z" fill="#6F7881"/>
<path d="M115.275 9.20658H118.751V18.1498H121.665V9.20658H125.141V6.47949H115.275V9.20658Z" fill="#6F7881"/>
<path d="M113.39 6.47949H110.476V18.1498H113.39V6.47949Z" fill="#6F7881"/>
<path d="M84.9697 9.20658H88.4454V18.1498H91.3597V9.20658H94.8354V6.47949H84.9697V9.20658Z" fill="#6F7881"/>
<path d="M69.7033 6.47949H66.7891V18.1498H69.7033V6.47949Z" fill="#6F7881"/>
<path d="M83.4459 11.3722C83.4459 8.41782 81.0797 6.2522 78.0585 6.2522C75.0373 6.2522 72.6846 8.40445 72.6846 11.3722V18.1631H75.5988V11.7197C75.5988 10.1289 76.6683 9.05949 78.0719 9.05949C79.4755 9.05949 80.545 10.1289 80.545 11.7197V18.1631H83.4592V11.3722H83.4459Z" fill="#6F7881"/>
<path fill-rule="evenodd" clip-rule="evenodd" d="M42.816 28.6787H44.164C44.3887 28.2294 44.3887 27.3307 44.164 26.3197C43.9393 24.8593 43.49 24.0729 42.7036 24.0729C41.805 24.2976 41.805 25.3086 42.142 26.769C42.2543 27.5554 42.5913 28.2294 42.9283 28.6787H42.816ZM35.7388 29.8021C36.3005 30.1391 36.6375 30.2515 36.8621 30.1391L36.7498 29.5774C36.4128 29.1281 35.8511 28.6787 35.1771 28.4541C34.5039 28.1662 33.768 28.0564 33.0401 28.1351C32.3122 28.2138 31.6168 28.4784 31.0206 28.9034C30.6836 29.1281 30.2343 29.5774 30.3466 29.8021L30.5713 29.9144C30.9083 29.9144 32.0317 29.4651 33.3797 29.3528C34.2784 29.3528 35.0648 29.5774 35.6264 29.8021H35.7388ZM34.5031 30.5885C33.7167 30.5885 33.3797 30.9255 33.0427 31.1501L32.5933 31.7118V31.9365H32.818L33.3797 31.8242C34.5031 31.3748 35.1771 31.4872 35.8511 31.4872H36.5251V31.2625C36.4128 30.9255 35.5141 30.3638 34.5031 30.5885ZM40.4569 33.0599C41.0186 33.2845 41.5803 33.2845 41.805 32.8352C41.9173 32.4982 41.6926 31.9365 41.1309 31.7118C40.6816 31.3748 40.0076 31.4872 39.8952 31.9365C39.6706 32.2735 39.8952 32.8352 40.4569 33.0599ZM43.827 30.0268C43.49 30.0268 43.153 30.5885 43.0407 31.1501C43.0407 31.7118 43.3777 32.2735 43.827 32.2735C44.2764 32.2735 44.6134 31.7118 44.6134 31.1501C44.6134 30.5885 44.2764 30.0268 43.9393 30.0268H43.827ZM14.5072 40.6988C14.2825 40.6988 14.1701 40.8111 14.0578 40.6988C13.9183 40.7262 13.7743 40.7201 13.6376 40.6811C13.5009 40.642 13.3754 40.5711 13.2715 40.4741V39.126L13.4961 38.9014C13.8331 38.115 14.3948 36.8793 13.7208 35.5313C13.5037 35.1052 13.1852 34.739 12.7935 34.4648C12.4018 34.1906 11.9487 34.0168 11.4741 33.9586C10.5754 33.8462 9.56434 34.1832 9.00266 34.8573C7.99163 35.9806 7.87929 37.3287 8.10396 37.8903L8.32864 38.115C8.44098 38.115 8.77798 38.0027 8.89032 37.5533C8.89032 37.2163 9.115 36.8793 9.33967 36.43C9.56434 36.093 9.90135 35.8683 10.463 35.7559C10.9124 35.7559 11.3617 35.7559 11.6987 35.9806C12.3728 36.43 12.5974 37.3287 12.3728 38.115C12.2604 38.452 11.9234 39.2384 12.0357 39.9124C12.0357 41.1481 12.9344 41.7098 13.6085 41.7098C14.2825 41.7098 14.7318 41.3728 14.9565 41.1481V40.8111C14.8442 40.6988 14.6195 40.8111 14.5072 40.8111V40.6988ZM54.9483 42.7208C54.3867 45.3046 53.2633 47.5513 51.3536 49.461C50.2302 50.8091 48.7698 51.9324 47.1971 52.7188L44.501 53.8421C37.3115 56.2012 29.8973 53.6175 27.5382 48.0006C26.7234 46.0074 26.4809 43.8263 26.8382 41.7028C27.1954 39.5793 28.1381 37.5975 29.5603 35.9806L29.8973 35.3066L29.6726 34.7449C28.6616 33.2845 25.4038 31.0378 26.0778 26.432C26.5272 23.2866 29.4479 20.9275 32.0317 21.0399H32.7057L35.7388 21.3769C37.3115 21.3769 38.7719 21.2645 40.4569 19.8041C41.0186 19.3548 41.4679 18.9055 42.2543 18.7931H42.9283C43.2653 18.7931 43.7147 18.7931 44.0517 19.1301C45.3997 20.0288 45.6244 22.1632 45.6244 23.7359L45.8491 27.443C45.8491 28.9034 46.2984 29.1281 46.9724 29.3528L48.4328 29.8021C49.7555 30.0471 50.9932 30.6273 52.0276 31.4872C52.3646 31.9365 52.5893 32.2735 52.5893 32.7229C52.8139 34.2956 51.4659 36.093 47.7588 37.8903C43.8817 39.6139 39.6261 40.3103 35.4018 39.9124L34.2784 39.6877C31.47 39.3507 30.0096 42.9455 31.5823 45.3046C32.7057 46.8773 35.5141 47.8883 38.3225 47.8883C44.9504 47.8883 49.8932 45.0799 51.8029 42.6085L51.9152 42.3838C51.9152 42.1591 52.0276 42.2715 51.9152 42.3838C50.3425 43.2825 43.49 47.5513 36.1881 46.2033C36.1881 46.2033 35.4018 46.2033 34.6154 45.7539C33.9414 45.5292 32.5933 44.9676 32.3687 43.5072C38.3225 45.3046 42.0296 43.6195 42.0296 43.6195V43.5072L41.9173 43.2825C41.9173 43.2825 37.0868 44.0689 32.5933 42.3838C33.0427 40.6988 34.3907 41.2604 36.3005 41.4851C39.8952 41.7098 43.153 41.1481 45.5121 40.4741C47.5341 39.9124 50.2302 38.6767 52.3646 37.104C53.0386 38.5644 53.3756 40.3618 53.3756 40.3618C53.3756 40.3618 53.9373 40.2494 54.3867 40.4741C54.7237 40.8111 55.0607 41.3728 54.836 42.7208H54.9483ZM21.472 17.1081C23.7188 14.412 26.5272 12.1653 28.9986 10.9296H29.1109L28.4369 12.7269C28.4369 12.8393 28.4369 12.9516 28.5492 12.8393C30.1219 11.7159 32.818 10.5925 35.1771 10.5925C35.1771 10.5925 35.2894 10.5925 35.1771 10.7049C34.791 11.0321 34.4509 11.41 34.1661 11.8282H34.2784C35.9634 11.8282 38.3225 12.5023 39.8952 13.401C39.8952 13.401 39.8952 13.6256 39.6706 13.6256C36.5907 12.9206 33.3964 12.8765 30.2983 13.4961C27.2001 14.1158 24.2685 15.3851 21.6967 17.2204C21.472 17.2204 21.3597 17.2204 21.472 17.1081ZM9.78902 29.4651C7.77996 29.8657 6.00655 31.0345 4.8462 32.7229C4.06314 32.1287 3.34742 31.4506 2.71181 30.7008C1.02676 27.3307 4.62153 20.8152 7.20527 17.1081C13.6085 8.12114 23.4941 1.15627 28.2122 2.39197C28.8862 2.61665 31.3576 5.42506 31.3576 5.42506C31.3576 5.42506 26.8642 8.0088 22.5954 11.6036C16.7841 16.3064 12.3901 22.528 9.90135 29.5774L9.78902 29.4651ZM13.1591 44.8552H12.2604C9.22733 44.8552 5.85723 42.0468 5.52022 38.789C5.18321 35.1943 6.9806 32.3859 10.3507 31.7118C10.7939 31.6202 11.2465 31.5825 11.6987 31.5995C13.4961 31.5995 16.1922 33.0599 16.8662 37.2163C17.4279 40.5864 16.5292 44.2935 13.1591 44.8552ZM54.7237 38.452L54.3867 36.9917L53.825 35.6436C54.5094 34.7964 54.8441 33.7196 54.7606 32.6336C54.6771 31.5476 54.1816 30.5347 53.3756 29.8021C52.1227 28.7036 50.6177 27.9318 48.9945 27.5554L47.8711 27.3307V23.5113C47.8711 22.7249 47.7588 21.4892 47.3094 20.1412C46.9263 18.6202 46.1517 17.2259 45.0627 16.097C47.8711 13.1763 49.5562 9.91853 49.5562 7.11011C49.5562 1.94263 43.0407 0.369913 35.0648 3.74001L33.3797 4.30169L30.459 1.26861C21.3597 -6.59496 -7.06148 25.084 2.03779 32.7229L3.94751 34.5202C3.45304 35.9633 3.29925 37.5013 3.49816 39.0137C3.76123 41.2343 4.84268 43.277 6.53125 44.7429C8.1589 46.2484 10.2698 47.1246 12.4851 47.2143C14.3284 51.2601 17.3035 54.6858 21.0511 57.0779C24.7986 59.47 29.1585 60.7261 33.6044 60.6947C43.7147 61.0317 52.3646 56.2012 55.847 47.5513C56.0717 46.9896 57.0827 44.1812 57.0827 41.9345C57.0827 39.4631 55.7347 38.452 54.836 38.452H54.7237Z" fill="#6F7881"/>
</svg>
