<svg xmlns="http://www.w3.org/2000/svg" width="80" height="80" viewBox="0 0 80 80"><title>Sparkle Empty State</title><g fill="none" fill-rule="evenodd"><circle cx="40" cy="40" r="40" fill="#F5F5F5"/><path d="M38 22c0-1.333.82-2.153 1.333-2.667C39.847 18.82 40.667 18 42 18c-1.333 0-2.153-.82-2.667-1.333C38.82 16.153 38 15.333 38 14c0 1.333-.82 2.153-1.333 2.667C36.153 17.18 35.333 18 34 18c1.333 0 2.153.82 2.667 1.333C37.18 19.847 38 20.667 38 22zM23 61c0-1.667.192-3.525.833-4.167.642-.641 2.5-.833 4.167-.833-1.667 0-3.525-.192-4.167-.833-.641-.642-.833-2.5-.833-4.167 0 1.667-.192 3.525-.833 4.167-.642.641-2.5.833-4.167.833 1.667 0 3.525.192 4.167.833.641.642.833 2.5.833 4.167z" stroke="#008080" strokeLinecap="round" strokeLinejoin="round"/><path d="M60.688 54.077c0-2.452.69-3.781 1.634-4.726.945-.945 2.375-1.762 4.827-1.762-2.452 0-3.933-.714-4.877-1.659-.945-.945-1.635-2.427-1.635-4.88 0 2.453-.639 3.935-1.584 4.88-.945.945-2.478 1.66-4.93 1.66 2.452 0 4.036.816 4.98 1.761.946.945 1.585 2.274 1.585 4.726z" stroke="#008080" strokeLinecap="round" strokeLinejoin="round"/><path d="M44.715 54.044c-3.53.768-8.35.855-8.35 2.9v6.538c0-3.407 13.077-1.772 13.077-6.538v-5.721" stroke="#A9B0B7" fill="#FFF" strokeLinecap="round" strokeLinejoin="round"/><path d="M26 24c0 7.266-1.547 9-9 9 7.407 0 9 1.688 9 9 0-7.359 1.405-9 9-9-7.595 0-9-1.688-9-9z" stroke="#008080" strokeLinecap="round" strokeLinejoin="round"/><path d="M38.433 46.18c3.341 2.42 11.01 1.738 11.01 5.278 0 1.908-2.376 2.311-4.728 2.823-3.53-.716-8.35-1.187-8.35-5.275v-5.72" stroke="#A9B0B7" fill="#E2E5E7" strokeLinecap="round" strokeLinejoin="round"/><path d="M53.682 35.055c-4.346 3.333-17.316 2.166-17.316 7.8 0 1.565 1.072 2.174 2.067 2.895 4.518-2.968 17.548-1.97 17.548-7.798V32.23" stroke="#A9B0B7" fill="#FFF" strokeLinecap="round" strokeLinejoin="round"/><path d="M55.442 32.538C55.442 29.303 50.47 26 44 26v6.538c4.086 0 7.488 1.158 9.144 2.825.905-.696 2.298-1.59 2.298-2.825z" stroke="#A9B0B7" fill="#E2E5E7" strokeLinecap="round" strokeLinejoin="round"/></g></svg>